<svg height="1118" width="720" xmlns="http://www.w3.org/2000/svg">
<rect height="1118" fill="#555" width="720"></rect>
<text fill="#7f7" font-family="Courier New" font-size="12" xml:space="preserve">
<tspan x="10" y="26">19 megabytes installed</tspan>
<tspan x="10" y="42"></tspan>
<tspan x="10" y="58">node_modules</tspan>
<tspan x="10" y="74">└─┬ seraph@0.15.2 </tspan>
<tspan x="10" y="90">  ├── ascallback@1.1.1 </tspan>
<tspan x="10" y="106">  ├── async@0.2.10 </tspan>
<tspan x="10" y="122">  ├── naan@1.3.11 </tspan>
<tspan x="10" y="138">  ├─┬ neo4j-driver@1.2.0 </tspan>
<tspan x="10" y="154">  │ └─┬ babel-runtime@6.23.0 </tspan>
<tspan x="10" y="170">  │   ├── core-js@2.4.1 </tspan>
<tspan x="10" y="186">  │   └── regenerator-runtime@0.10.3 </tspan>
<tspan x="10" y="202">  ├─┬ request@2.81.0 </tspan>
<tspan x="10" y="218">  │ ├── aws-sign2@0.6.0 </tspan>
<tspan x="10" y="234">  │ ├── aws4@1.6.0 </tspan>
<tspan x="10" y="250">  │ ├── caseless@0.12.0 </tspan>
<tspan x="10" y="266">  │ ├─┬ combined-stream@1.0.5 </tspan>
<tspan x="10" y="282">  │ │ └── delayed-stream@1.0.0 </tspan>
<tspan x="10" y="298">  │ ├── extend@3.0.0 </tspan>
<tspan x="10" y="314">  │ ├── forever-agent@0.6.1 </tspan>
<tspan x="10" y="330">  │ ├─┬ form-data@2.1.4 </tspan>
<tspan x="10" y="346">  │ │ └── asynckit@0.4.0 </tspan>
<tspan x="10" y="362">  │ ├─┬ har-validator@4.2.1 </tspan>
<tspan x="10" y="378">  │ │ ├─┬ ajv@4.11.7 </tspan>
<tspan x="10" y="394">  │ │ │ ├── co@4.6.0 </tspan>
<tspan x="10" y="410">  │ │ │ └─┬ json-stable-stringify@1.0.1 </tspan>
<tspan x="10" y="426">  │ │ │   └── jsonify@0.0.0 </tspan>
<tspan x="10" y="442">  │ │ └── har-schema@1.0.5 </tspan>
<tspan x="10" y="458">  │ ├─┬ hawk@3.1.3 </tspan>
<tspan x="10" y="474">  │ │ ├── boom@2.10.1 </tspan>
<tspan x="10" y="490">  │ │ ├── cryptiles@2.0.5 </tspan>
<tspan x="10" y="506">  │ │ ├── hoek@2.16.3 </tspan>
<tspan x="10" y="522">  │ │ └── sntp@1.0.9 </tspan>
<tspan x="10" y="538">  │ ├─┬ http-signature@1.1.1 </tspan>
<tspan x="10" y="554">  │ │ ├── assert-plus@0.2.0 </tspan>
<tspan x="10" y="570">  │ │ ├─┬ jsprim@1.4.0 </tspan>
<tspan x="10" y="586">  │ │ │ ├── assert-plus@1.0.0 </tspan>
<tspan x="10" y="602">  │ │ │ ├── extsprintf@1.0.2 </tspan>
<tspan x="10" y="618">  │ │ │ ├── json-schema@0.2.3 </tspan>
<tspan x="10" y="634">  │ │ │ └── verror@1.3.6 </tspan>
<tspan x="10" y="650">  │ │ └─┬ sshpk@1.13.0 </tspan>
<tspan x="10" y="666">  │ │   ├── asn1@0.2.3 </tspan>
<tspan x="10" y="682">  │ │   ├── assert-plus@1.0.0 </tspan>
<tspan x="10" y="698">  │ │   ├── bcrypt-pbkdf@1.0.1 </tspan>
<tspan x="10" y="714">  │ │   ├─┬ dashdash@1.14.1 </tspan>
<tspan x="10" y="730">  │ │   │ └── assert-plus@1.0.0 </tspan>
<tspan x="10" y="746">  │ │   ├── ecc-jsbn@0.1.1 </tspan>
<tspan x="10" y="762">  │ │   ├─┬ getpass@0.1.6 </tspan>
<tspan x="10" y="778">  │ │   │ └── assert-plus@1.0.0 </tspan>
<tspan x="10" y="794">  │ │   ├── jodid25519@1.0.2 </tspan>
<tspan x="10" y="810">  │ │   ├── jsbn@0.1.1 </tspan>
<tspan x="10" y="826">  │ │   └── tweetnacl@0.14.5 </tspan>
<tspan x="10" y="842">  │ ├── is-typedarray@1.0.0 </tspan>
<tspan x="10" y="858">  │ ├── isstream@0.1.2 </tspan>
<tspan x="10" y="874">  │ ├── json-stringify-safe@5.0.1 </tspan>
<tspan x="10" y="890">  │ ├─┬ mime-types@2.1.15 </tspan>
<tspan x="10" y="906">  │ │ └── mime-db@1.27.0 </tspan>
<tspan x="10" y="922">  │ ├── oauth-sign@0.8.2 </tspan>
<tspan x="10" y="938">  │ ├── performance-now@0.2.0 </tspan>
<tspan x="10" y="954">  │ ├── qs@6.4.0 </tspan>
<tspan x="10" y="970">  │ ├── safe-buffer@5.0.1 </tspan>
<tspan x="10" y="986">  │ ├── stringstream@0.0.5 </tspan>
<tspan x="10" y="1002">  │ ├─┬ tough-cookie@2.3.2 </tspan>
<tspan x="10" y="1018">  │ │ └── punycode@1.4.1 </tspan>
<tspan x="10" y="1034">  │ ├── tunnel-agent@0.6.0 </tspan>
<tspan x="10" y="1050">  │ └── uuid@3.0.1 </tspan>
<tspan x="10" y="1066">  ├── seraph-core@1.1.1 </tspan>
<tspan x="10" y="1082">  ├── thunkify@2.1.2 </tspan>
<tspan x="10" y="1098">  └── underscore@1.8.3</tspan>
</text>
</svg>
